<svg width="60" height="60" viewBox="0 0 60 60" fill="none" xmlns="http://www.w3.org/2000/svg">
<path d="M38.75 10C34.4336 10 30.459 11.6797 27.5 14.5312V24.0918L28.2812 22.1094C30 17.793 34.1016 15 38.75 15C44.9512 15 50 20.0488 50 26.25C50 32.4512 44.9512 37.5 38.75 37.5C35.1562 37.5 31.7578 35.7617 29.6094 32.8125C29.6094 32.8027 28.0469 30.7715 27.832 30.459C25.498 27.041 21.6309 25 17.5 25C10.6055 25 5 30.6055 5 37.5C5 44.3945 10.6055 50 17.5 50C20.2539 50 22.8711 49.0527 25 47.4512V39.1797L24.2871 40.6934C23.0566 43.3105 20.3906 45 17.5 45C13.3691 45 10 41.6309 10 37.5C10 33.3691 13.3691 30 17.5 30C19.9805 30 22.2949 31.2207 23.7012 33.2812C23.8965 33.5645 25.5957 35.8008 25.5957 35.8008C28.6523 39.9902 33.5645 42.5 38.75 42.5C47.7148 42.5 55 35.2148 55 26.25C55 17.2852 47.7148 10 38.75 10Z" fill="black"/>
</svg>
